<svg width="32" height="32" viewBox="0 0 32 32" fill="none" xmlns="http://www.w3.org/2000/svg">
<rect width="32" height="32" rx="8" fill="white"/>
<path d="M9.66477 10.0909V21H6.70312V10.0909H9.66477ZM11.111 21V12.8182H13.9022V14.3736H13.9874C14.1578 13.8622 14.449 13.4574 14.861 13.1591C15.2729 12.8608 15.763 12.7116 16.3311 12.7116C16.9064 12.7116 17.4018 12.8643 17.8173 13.1697C18.2328 13.4716 18.4831 13.8729 18.5684 14.3736H18.6536C18.7921 13.8729 19.0868 13.4716 19.5378 13.1697C19.9888 12.8643 20.5179 12.7116 21.1252 12.7116C21.91 12.7116 22.5456 12.9638 23.0321 13.468C23.5222 13.9723 23.7672 14.6435 23.7672 15.4815V21H20.8269V16.2273C20.8269 15.8686 20.7363 15.5881 20.5552 15.3857C20.3741 15.1797 20.1309 15.0767 19.8255 15.0767C19.5236 15.0767 19.2839 15.1797 19.1064 15.3857C18.9324 15.5881 18.8453 15.8686 18.8453 16.2273V21H16.0328V16.2273C16.0328 15.8686 15.9423 15.5881 15.7612 15.3857C15.5801 15.1797 15.3368 15.0767 15.0314 15.0767C14.829 15.0767 14.655 15.1229 14.5094 15.2152C14.3638 15.3075 14.2502 15.4407 14.1685 15.6147C14.0904 15.7852 14.0513 15.9893 14.0513 16.2273V21H11.111ZM26.8154 21.1705C26.4035 21.1705 26.0502 21.0266 25.7554 20.739C25.4642 20.4478 25.3204 20.0945 25.324 19.679C25.3204 19.2741 25.4642 18.9279 25.7554 18.6403C26.0502 18.3526 26.4035 18.2088 26.8154 18.2088C27.2061 18.2088 27.5505 18.3526 27.8488 18.6403C28.1507 18.9279 28.3034 19.2741 28.3069 19.679C28.3034 19.956 28.2306 20.2081 28.0885 20.4354C27.95 20.6591 27.7689 20.8384 27.5452 20.9734C27.3215 21.1048 27.0782 21.1705 26.8154 21.1705Z" fill="black"/>
</svg>
